<svg fill="none" height="38" viewBox="0 0 30 38" width="30" xmlns="http://www.w3.org/2000/svg">
    <path
        d="M1 8.875C1 6.66586 2.79086 4.875 5 4.875H20C24.9706 4.875 29 8.90444 29 13.875V27.625C29 32.5956 24.9706 36.625 20 36.625H5C2.79086 36.625 1 34.8341 1 32.625V8.875Z"
        stroke="url(#paint0_linear_241_1990)" stroke-width="2" />
    <line stroke="url(#paint1_linear_241_1990)" stroke-width="2" x1="0.9375" x2="29.0625" y1="26.3123"
        y2="26.3123" />
    <line stroke="url(#paint2_linear_241_1990)" stroke-width="2" x1="0.9375" x2="29.0625" y1="14.125"
        y2="14.125" />
    <line stroke="url(#paint3_linear_241_1990)" stroke-width="2" x1="7.49805" x2="19.6855" y1="1"
        y2="1" />
    <line stroke="url(#paint4_linear_241_1990)" stroke-width="2" x1="14.5918" x2="14.5918" y1="17.9375"
        y2="22.625" />
    <line stroke="url(#paint5_linear_241_1990)" stroke-width="2" x1="16.874" x2="12.1865" y1="20.344"
        y2="20.344" />
    <defs>
        <linearGradient gradientUnits="userSpaceOnUse" id="paint0_linear_241_1990" x1="15" x2="15" y1="3.875"
            y2="37.625">
            <stop stop-color="#0E6BC0" />
            <stop offset="1" stop-color="#37C4CD" />
        </linearGradient>
        <linearGradient gradientUnits="userSpaceOnUse" id="paint1_linear_241_1990" x1="15" x2="15" y1="27.3123"
            y2="28.3123">
            <stop stop-color="#0E6BC0" />
            <stop offset="1" stop-color="#37C4CD" />
        </linearGradient>
        <linearGradient gradientUnits="userSpaceOnUse" id="paint2_linear_241_1990" x1="15" x2="15" y1="15.125"
            y2="16.125">
            <stop stop-color="#0E6BC0" />
            <stop offset="1" stop-color="#37C4CD" />
        </linearGradient>
        <linearGradient gradientUnits="userSpaceOnUse" id="paint3_linear_241_1990" x1="13.5918" x2="13.5918" y1="2"
            y2="3">
            <stop stop-color="#0E6BC0" />
            <stop offset="1" stop-color="#37C4CD" />
        </linearGradient>
        <linearGradient gradientUnits="userSpaceOnUse" id="paint4_linear_241_1990" x1="13.5918" x2="12.5918"
            y1="20.2813" y2="20.2813">
            <stop stop-color="#0E6BC0" />
            <stop offset="1" stop-color="#37C4CD" />
        </linearGradient>
        <linearGradient gradientUnits="userSpaceOnUse" id="paint5_linear_241_1990" x1="14.5303" x2="14.5303"
            y1="19.344" y2="18.344">
            <stop stop-color="#0E6BC0" />
            <stop offset="1" stop-color="#37C4CD" />
        </linearGradient>
    </defs>
</svg>
